<svg width="137" height="124" viewBox="0 0 137 124" fill="none" xmlns="http://www.w3.org/2000/svg">
<g clip-path="url(#clip0_7701_15595)">
<path d="M103.95 104.575L101.038 4.83333H101.025C101.095 4.00077 100.659 3.15949 99.6387 2.44026C97.1236 0.670521 92.1892 0.417702 88.7805 1.88667C86.9803 2.66257 86.0213 3.74795 85.9298 4.83333H85.9167L83.0049 104.575H103.95Z" fill="url(#paint0_linear_7701_15595)"/>
<path d="M93.4793 9.51071C97.7903 9.51071 101.286 11.0451 101.286 12.9412L101.173 8.22482C101.173 6.38969 97.738 4.89893 93.5011 4.89893C89.2642 4.89893 85.8075 6.38533 85.8075 8.22482L85.6768 12.9412C85.6768 11.0451 89.1727 9.51071 93.4837 9.51071H93.4793Z" fill="url(#paint1_linear_7701_15595)"/>
<path d="M93.4791 5.20383C97.7029 5.20383 101.129 6.73818 101.129 8.63434L101.02 3.91793C101.02 2.08281 97.655 0.592041 93.5009 0.592041C89.3468 0.592041 85.9599 2.07845 85.9599 3.91793L85.8291 8.63434C85.8291 6.73818 89.2553 5.20383 93.4791 5.20383Z" fill="url(#paint2_linear_7701_15595)"/>
<path d="M93.4791 5.20383C97.7029 5.20383 101.129 6.73818 101.129 8.63434L101.02 3.91793C101.02 2.08281 97.655 0.592041 93.5009 0.592041C89.3468 0.592041 85.9599 2.07845 85.9599 3.91793L85.8291 8.63434C85.8291 6.73818 89.2553 5.20383 93.4791 5.20383Z" fill="url(#paint3_linear_7701_15595)"/>
<path d="M79.9146 104.575L77.2512 13.3813H77.2382C77.3035 12.6185 76.9025 11.8469 75.9741 11.1931C73.6725 9.57592 69.1654 9.3449 66.0443 10.6875C64.3966 11.398 63.5205 12.3875 63.4377 13.3813H63.4246L60.7656 104.575H79.9146Z" fill="url(#paint4_linear_7701_15595)"/>
<path d="M70.3382 17.6531C74.2787 17.6531 77.4739 19.0567 77.4739 20.7916L77.3692 16.4762C77.3692 14.798 74.2264 13.438 70.3557 13.438C66.4849 13.438 63.3203 14.798 63.3203 16.4762L63.1982 20.7916C63.1982 19.0567 66.3934 17.6531 70.3339 17.6531H70.3382Z" fill="url(#paint5_linear_7701_15595)"/>
<path d="M70.3379 13.7168C74.2 13.7168 77.3297 15.1204 77.3297 16.8553L77.2295 12.5399C77.2295 10.8617 74.152 9.50171 70.3554 9.50171C66.5587 9.50171 63.4595 10.8617 63.4595 12.5399L63.3418 16.8553C63.3418 15.1204 66.4715 13.7168 70.3336 13.7168H70.3379Z" fill="url(#paint6_linear_7701_15595)"/>
<path d="M70.3379 13.7168C74.2 13.7168 77.3297 15.1204 77.3297 16.8553L77.2295 12.5399C77.2295 10.8617 74.152 9.50171 70.3554 9.50171C66.5587 9.50171 63.4595 10.8617 63.4595 12.5399L63.3418 16.8553C63.3418 15.1204 66.4715 13.7168 70.3336 13.7168H70.3379Z" fill="url(#paint7_linear_7701_15595)"/>
<path d="M33.8613 37.6389L48.6164 41.8104L33.8613 63.553V37.6389Z" fill="url(#paint8_linear_7701_15595)"/>
<path d="M33.8619 63.5532V40.4507L14.4775 67.8381V101.345L15.7155 101.324V104.575H58.368V58.135V31.9812L33.8619 63.5532Z" fill="url(#paint9_linear_7701_15595)"/>
<path d="M75.3628 71.2729L58.3672 68.3306V78.4608L75.3628 80.5836V71.2729Z" fill="url(#paint10_linear_7701_15595)"/>
<path d="M75.3628 95.4519L58.3672 94.6498V84.2886L75.3628 85.9319V95.4519Z" fill="url(#paint11_linear_7701_15595)"/>
<path d="M112.227 104.575H58.3672V31.9812L113.46 51.0212V101.921L112.227 101.899V104.575Z" fill="url(#paint12_linear_7701_15595)"/>
<path d="M102.197 104.575H82.874V73.5481L102.197 76.7824V104.575Z" fill="#333132"/>
<path d="M136.371 104.575H0.384766V105.669H136.371V104.575Z" fill="url(#paint13_linear_7701_15595)"/>
<path d="M102.202 81.804L82.874 79.1537V75.1042L102.202 78.173V81.804Z" fill="url(#paint14_linear_7701_15595)"/>
<path d="M102.202 81.804L82.874 79.1537V75.1042L102.202 78.173V81.804Z" fill="url(#paint15_linear_7701_15595)"/>
<path d="M102.202 87.4969L82.874 85.5092V81.4597L102.202 83.8702V87.4969Z" fill="url(#paint16_linear_7701_15595)"/>
<path d="M102.202 87.4969L82.874 85.5092V81.4597L102.202 83.8702V87.4969Z" fill="url(#paint17_linear_7701_15595)"/>
<path d="M102.197 93.1898L82.874 91.8647V87.8152L102.202 89.5631L102.197 93.1898Z" fill="url(#paint18_linear_7701_15595)"/>
<path d="M102.197 93.1898L82.874 91.8647V87.8152L102.202 89.5631L102.197 93.1898Z" fill="url(#paint19_linear_7701_15595)"/>
<path d="M102.197 98.8825L82.874 98.2199V94.1704L102.197 95.2558V98.8825Z" fill="url(#paint20_linear_7701_15595)"/>
<path d="M102.197 98.8825L82.874 98.2199V94.1704L102.197 95.2558V98.8825Z" fill="url(#paint21_linear_7701_15595)"/>
<path d="M102.197 104.575H82.874V100.526L102.197 100.949V104.575Z" fill="url(#paint22_linear_7701_15595)"/>
<path d="M102.197 104.575H82.874V100.526L102.197 100.949V104.575Z" fill="url(#paint23_linear_7701_15595)"/>
<path d="M102.259 61.0946L105.323 60.5671V68.5266L102.259 67.8379V61.0946Z" fill="url(#paint24_linear_7701_15595)"/>
<path d="M82.874 63.553L102.258 67.8379V61.0946L82.874 56.0208V63.553Z" fill="#333132"/>
<path d="M82.874 56.0209V54.5127L105.323 60.5673L102.258 61.0947L82.874 56.0209Z" fill="#414042"/>
<path d="M102.197 104.575H105.323V76.4382L102.197 76.7826V104.575Z" fill="url(#paint25_linear_7701_15595)"/>
<path d="M82.874 72.5674V73.5482L102.197 76.7825L105.323 76.4381L82.874 72.5674Z" fill="#414042"/>
<path d="M58.3683 100.495L15.7158 101.324V104.575H58.3683V100.495Z" fill="url(#paint26_linear_7701_15595)"/>
<path d="M82.8733 104.575H58.3672V100.495L82.8733 100.97V104.575Z" fill="url(#paint27_linear_7701_15595)"/>
<path d="M112.227 104.575H105.322V101.781L112.227 101.921V104.575Z" fill="url(#paint28_linear_7701_15595)"/>
<path d="M57.3828 33.2497L57.7926 100.526L58.3679 100.495L59.0436 100.526L59.462 32.3604L58.3679 31.9812L57.3828 33.2497Z" fill="white"/>
<path d="M33.8618 40.4504L32.8984 41.8104L33.8618 63.553V40.4504Z" fill="white"/>
<path d="M102.258 63.2654L82.874 58.4138V57.2805L102.258 62.2541V63.2654Z" fill="url(#paint29_linear_7701_15595)"/>
<path d="M102.258 65.2269L82.874 60.602V59.4905L102.258 64.233V65.2269Z" fill="url(#paint30_linear_7701_15595)"/>
<path d="M102.258 67.171V66.2295L82.874 61.6831V62.738L102.258 67.171Z" fill="url(#paint31_linear_7701_15595)"/>
<path d="M58.3116 105.669H15.7158V115.303H58.3116V105.669Z" fill="url(#paint32_linear_7701_15595)"/>
<path d="M102.258 105.669H82.874V115.303H102.258V105.669Z" fill="url(#paint33_linear_7701_15595)"/>
<path d="M82.8703 105.669H58.4209V115.303H82.8703V105.669Z" fill="url(#paint34_linear_7701_15595)"/>
<path d="M112.223 105.669H102.197V115.303H112.223V105.669Z" fill="url(#paint35_linear_7701_15595)"/>
<path d="M14.477 67.8378H12.4414L33.8614 37.6389V40.4505L14.477 67.8378Z" fill="#414042"/>
<path d="M33.861 63.553L31.9082 63.3219L58.0576 29.6489L58.3671 31.981L33.861 63.553Z" fill="#414042"/>
<path d="M58.3681 31.981L113.461 51.0209L115.056 50.1709L58.0586 29.6489L58.3681 31.981Z" fill="#414042"/>
<path d="M46.7297 80.5006L37.6631 81.5947V71.5255L46.7297 69.9563V80.5006Z" fill="#6D6E71"/>
<path d="M46.7297 95.9968L37.6631 96.3934V86.2414L46.7297 85.3652V95.9968Z" fill="#6D6E71"/>
<path d="M75.3635 71.2726L66.2969 69.7078V80.1867L75.3635 81.2808V71.2726Z" fill="#6D6E71"/>
<path d="M66.2969 95.6874L75.3635 96.0841V85.9321L66.2969 85.0559V95.6874Z" fill="#6D6E71"/>
<path d="M31.0852 82.4446L23.2129 83.3905V74.0231L31.0852 72.6631V82.4446Z" fill="#6D6E71"/>
<path d="M31.0852 96.7336L23.2129 97.0779V87.6364L31.0852 86.8779V96.7336Z" fill="#6D6E71"/>
<path d="M66.2969 95.6872L74.4351 96.0446V86.5508L66.2969 85.7923V95.6872ZM66.2969 70.5185V80.1867L74.4351 81.1675V71.8872L66.2969 70.5142V70.5185Z" fill="url(#paint36_linear_7701_15595)"/>
<path d="M24.1367 88.2553V97.0386L31.0806 96.7335V87.6102L24.1367 88.2553ZM38.5911 86.8604V96.3543L46.7292 95.9968V86.102L38.5911 86.8604ZM24.1367 74.6422V83.2817L31.0806 82.4448V73.4697L24.1367 74.6379V74.6422ZM46.7292 70.7715L38.5911 72.1446V81.4815L46.7292 80.5007V70.7715Z" fill="url(#paint37_linear_7701_15595)"/>
<path d="M24.1367 88.2553V97.0386L31.0806 96.7335V87.6102L24.1367 88.2553ZM38.5911 86.8604V96.3543L46.7292 95.9968V86.102L38.5911 86.8604ZM24.1367 74.6422V83.2817L31.0806 82.4448V73.4697L24.1367 74.6379V74.6422ZM46.7292 70.7715L38.5911 72.1446V81.4815L46.7292 80.5007V70.7715Z" fill="url(#paint38_linear_7701_15595)"/>
<path d="M74.4394 71.8916L75.3635 71.2726L66.2969 69.7078V70.5185L74.4394 71.8916Z" fill="#414042"/>
<path d="M74.4394 86.551L75.3635 85.9321L66.2969 85.0559V85.7926L74.4394 86.551Z" fill="#414042"/>
<path d="M46.7297 85.3652V86.1019L38.5915 86.8604L37.6631 86.2414L46.7297 85.3652Z" fill="#414042"/>
<path d="M46.7297 70.7671V69.9563L37.6631 71.5255L38.5915 72.1445L46.7297 70.7671Z" fill="#414042"/>
<path d="M31.0852 73.4695V72.6631L23.2129 74.0231L24.137 74.6377L31.0852 73.4695Z" fill="#414042"/>
<path d="M23.2129 87.6364L24.137 88.2554L31.0852 87.6102V86.8779L23.2129 87.6364Z" fill="#414042"/>
</g>
<defs>
<linearGradient id="paint0_linear_7701_15595" x1="86.8887" y1="52.7558" x2="100.384" y2="52.7558" gradientUnits="userSpaceOnUse">
<stop stop-color="#96999B"/>
<stop offset="0.27" stop-color="#B6B8BA"/>
<stop offset="0.35" stop-color="#A4A6A8"/>
<stop offset="0.56" stop-color="#78797A"/>
<stop offset="0.74" stop-color="#58585A"/>
<stop offset="0.9" stop-color="#454546"/>
<stop offset="1" stop-color="#3E3E3F"/>
</linearGradient>
<linearGradient id="paint1_linear_7701_15595" x1="85.6724" y1="8.91789" x2="101.286" y2="8.91789" gradientUnits="userSpaceOnUse">
<stop stop-color="#D0D3D6"/>
<stop offset="0.28" stop-color="white"/>
<stop offset="0.81" stop-color="#828487"/>
</linearGradient>
<linearGradient id="paint2_linear_7701_15595" x1="85.8291" y1="4.61101" x2="101.125" y2="4.61101" gradientUnits="userSpaceOnUse">
<stop stop-color="#D73A30"/>
<stop offset="0.27" stop-color="#F04C3E"/>
<stop offset="0.37" stop-color="#D83D34"/>
<stop offset="0.57" stop-color="#AA2322"/>
<stop offset="0.75" stop-color="#8A1014"/>
<stop offset="0.9" stop-color="#76040C"/>
<stop offset="1" stop-color="#6F000A"/>
</linearGradient>
<linearGradient id="paint3_linear_7701_15595" x1="93.4768" y1="8.63434" x2="93.4768" y2="0.592041" gradientUnits="userSpaceOnUse">
<stop stop-color="#FFCB05"/>
<stop offset="1" stop-color="#E8BC16"/>
</linearGradient>
<linearGradient id="paint4_linear_7701_15595" x1="64.3138" y1="57.1933" x2="76.6541" y2="57.1933" gradientUnits="userSpaceOnUse">
<stop stop-color="#96999B"/>
<stop offset="0.27" stop-color="#B6B8BA"/>
<stop offset="0.35" stop-color="#A4A6A8"/>
<stop offset="0.56" stop-color="#78797A"/>
<stop offset="0.74" stop-color="#58585A"/>
<stop offset="0.9" stop-color="#454546"/>
<stop offset="1" stop-color="#3E3E3F"/>
</linearGradient>
<linearGradient id="paint5_linear_7701_15595" x1="63.1982" y1="17.1126" x2="77.4739" y2="17.1126" gradientUnits="userSpaceOnUse">
<stop stop-color="#D0D3D6"/>
<stop offset="0.28" stop-color="white"/>
<stop offset="0.81" stop-color="#828487"/>
</linearGradient>
<linearGradient id="paint6_linear_7701_15595" x1="63.3418" y1="13.1763" x2="77.3297" y2="13.1763" gradientUnits="userSpaceOnUse">
<stop stop-color="#D73A30"/>
<stop offset="0.27" stop-color="#F04C3E"/>
<stop offset="0.37" stop-color="#D83D34"/>
<stop offset="0.57" stop-color="#AA2322"/>
<stop offset="0.75" stop-color="#8A1014"/>
<stop offset="0.9" stop-color="#76040C"/>
<stop offset="1" stop-color="#6F000A"/>
</linearGradient>
<linearGradient id="paint7_linear_7701_15595" x1="70.3337" y1="16.8553" x2="70.3337" y2="9.50171" gradientUnits="userSpaceOnUse">
<stop stop-color="#FFCB05"/>
<stop offset="1" stop-color="#E8BC16"/>
</linearGradient>
<linearGradient id="paint8_linear_7701_15595" x1="41.2367" y1="63.553" x2="41.2367" y2="37.6389" gradientUnits="userSpaceOnUse">
<stop stop-color="#FFCB05"/>
<stop offset="1" stop-color="#E8BC16"/>
</linearGradient>
<linearGradient id="paint9_linear_7701_15595" x1="14.4775" y1="68.2783" x2="92.4115" y2="68.2783" gradientUnits="userSpaceOnUse">
<stop stop-color="#E2E3E4"/>
<stop offset="1" stop-color="#EFEFF0"/>
</linearGradient>
<linearGradient id="paint10_linear_7701_15595" x1="58.3672" y1="74.4593" x2="105.745" y2="74.4593" gradientUnits="userSpaceOnUse">
<stop stop-color="#243842"/>
<stop offset="1" stop-color="#7297A9"/>
</linearGradient>
<linearGradient id="paint11_linear_7701_15595" x1="0.384231" y1="89.8724" x2="105.692" y2="89.8724" gradientUnits="userSpaceOnUse">
<stop stop-color="#243842"/>
<stop offset="1" stop-color="#7297A9"/>
</linearGradient>
<linearGradient id="paint12_linear_7701_15595" x1="49.2308" y1="41.1176" x2="112.458" y2="104.344" gradientUnits="userSpaceOnUse">
<stop stop-color="#939598"/>
<stop offset="1" stop-color="#DCDDDE"/>
</linearGradient>
<linearGradient id="paint13_linear_7701_15595" x1="0.384766" y1="105.12" x2="136.371" y2="105.12" gradientUnits="userSpaceOnUse">
<stop stop-color="#464547"/>
<stop offset="1" stop-color="#393839"/>
</linearGradient>
<linearGradient id="paint14_linear_7701_15595" x1="82.874" y1="78.4519" x2="102.202" y2="78.4519" gradientUnits="userSpaceOnUse">
<stop stop-color="#6F000A"/>
<stop offset="1" stop-color="#D73A30"/>
</linearGradient>
<linearGradient id="paint15_linear_7701_15595" x1="92.535" y1="81.804" x2="92.535" y2="75.1042" gradientUnits="userSpaceOnUse">
<stop stop-color="#FFCB05"/>
<stop offset="1" stop-color="#E8BC16"/>
</linearGradient>
<linearGradient id="paint16_linear_7701_15595" x1="82.874" y1="84.4805" x2="102.202" y2="84.4805" gradientUnits="userSpaceOnUse">
<stop stop-color="#6F000A"/>
<stop offset="1" stop-color="#D73A30"/>
</linearGradient>
<linearGradient id="paint17_linear_7701_15595" x1="92.535" y1="87.4969" x2="92.535" y2="81.4597" gradientUnits="userSpaceOnUse">
<stop stop-color="#FFCB05"/>
<stop offset="1" stop-color="#E8BC16"/>
</linearGradient>
<linearGradient id="paint18_linear_7701_15595" x1="82.874" y1="90.5047" x2="102.202" y2="90.5047" gradientUnits="userSpaceOnUse">
<stop stop-color="#6F000A"/>
<stop offset="1" stop-color="#D73A30"/>
</linearGradient>
<linearGradient id="paint19_linear_7701_15595" x1="92.535" y1="93.1898" x2="92.535" y2="87.8152" gradientUnits="userSpaceOnUse">
<stop stop-color="#FFCB05"/>
<stop offset="1" stop-color="#E8BC16"/>
</linearGradient>
<linearGradient id="paint20_linear_7701_15595" x1="82.874" y1="96.5286" x2="102.197" y2="96.5286" gradientUnits="userSpaceOnUse">
<stop stop-color="#6F000A"/>
<stop offset="1" stop-color="#D73A30"/>
</linearGradient>
<linearGradient id="paint21_linear_7701_15595" x1="92.5328" y1="98.8825" x2="92.5328" y2="94.1704" gradientUnits="userSpaceOnUse">
<stop stop-color="#FFCB05"/>
<stop offset="1" stop-color="#E8BC16"/>
</linearGradient>
<linearGradient id="paint22_linear_7701_15595" x1="82.874" y1="102.553" x2="102.197" y2="102.553" gradientUnits="userSpaceOnUse">
<stop stop-color="#6F000A"/>
<stop offset="1" stop-color="#D73A30"/>
</linearGradient>
<linearGradient id="paint23_linear_7701_15595" x1="92.5328" y1="104.575" x2="92.5328" y2="100.526" gradientUnits="userSpaceOnUse">
<stop stop-color="#FFCB05"/>
<stop offset="1" stop-color="#E8BC16"/>
</linearGradient>
<linearGradient id="paint24_linear_7701_15595" x1="101.291" y1="62.7641" x2="106.81" y2="65.9461" gradientUnits="userSpaceOnUse">
<stop stop-color="#565759"/>
<stop offset="1" stop-color="#939598"/>
</linearGradient>
<linearGradient id="paint25_linear_7701_15595" x1="102.197" y1="90.509" x2="105.323" y2="90.509" gradientUnits="userSpaceOnUse">
<stop stop-color="#565759"/>
<stop offset="1" stop-color="#939598"/>
</linearGradient>
<linearGradient id="paint26_linear_7701_15595" x1="37.0748" y1="105.133" x2="37.0225" y2="101.04" gradientUnits="userSpaceOnUse">
<stop stop-color="#5A5B5D"/>
<stop offset="0.02" stop-color="#5C5D5F"/>
<stop offset="0.03" stop-color="#6F7173"/>
<stop offset="0.29" stop-color="#6C6D6F"/>
<stop offset="0.49" stop-color="#636466"/>
<stop offset="0.67" stop-color="#545355"/>
<stop offset="0.84" stop-color="#3E3D3E"/>
<stop offset="1" stop-color="#231F20"/>
</linearGradient>
<linearGradient id="paint27_linear_7701_15595" x1="70.6202" y1="104.575" x2="70.6202" y2="100.722" gradientUnits="userSpaceOnUse">
<stop stop-color="#5A5B5D"/>
<stop offset="0.31" stop-color="#57585A"/>
<stop offset="0.54" stop-color="#4E4E50"/>
<stop offset="0.74" stop-color="#403F40"/>
<stop offset="0.93" stop-color="#2C282A"/>
<stop offset="1" stop-color="#231F20"/>
</linearGradient>
<linearGradient id="paint28_linear_7701_15595" x1="108.775" y1="0.592136" x2="108.775" y2="101.938" gradientUnits="userSpaceOnUse">
<stop stop-color="#5A5B5D"/>
<stop offset="0.31" stop-color="#57585A"/>
<stop offset="0.54" stop-color="#4E4E50"/>
<stop offset="0.74" stop-color="#403F40"/>
<stop offset="0.93" stop-color="#2C282A"/>
<stop offset="1" stop-color="#231F20"/>
</linearGradient>
<linearGradient id="paint29_linear_7701_15595" x1="82.874" y1="60.2751" x2="102.258" y2="60.2751" gradientUnits="userSpaceOnUse">
<stop stop-color="#6F7173"/>
<stop offset="1" stop-color="#A7A9AC"/>
</linearGradient>
<linearGradient id="paint30_linear_7701_15595" x1="0.384937" y1="62.3587" x2="0.820834" y2="62.3587" gradientUnits="userSpaceOnUse">
<stop stop-color="#6F7173"/>
<stop offset="1" stop-color="#A7A9AC"/>
</linearGradient>
<linearGradient id="paint31_linear_7701_15595" x1="86.3176" y1="58.2352" x2="98.7538" y2="70.6757" gradientUnits="userSpaceOnUse">
<stop stop-color="#6F7173"/>
<stop offset="1" stop-color="#A7A9AC"/>
</linearGradient>
<linearGradient id="paint32_linear_7701_15595" x1="36.8786" y1="105.97" x2="37.2012" y2="116.868" gradientUnits="userSpaceOnUse">
<stop stop-color="#BCBEC0"/>
<stop offset="0.08" stop-color="#C8C9CB"/>
<stop offset="0.28" stop-color="#E0E1E2"/>
<stop offset="0.49" stop-color="#F1F1F2"/>
<stop offset="0.72" stop-color="#FBFBFB"/>
<stop offset="1" stop-color="white"/>
</linearGradient>
<linearGradient id="paint33_linear_7701_15595" x1="92.4376" y1="106.258" x2="92.7427" y2="116.462" gradientUnits="userSpaceOnUse">
<stop stop-color="#BA989D"/>
<stop offset="0.07" stop-color="#C5A8AD"/>
<stop offset="0.23" stop-color="#DAC7CA"/>
<stop offset="0.4" stop-color="#EAE0E1"/>
<stop offset="0.58" stop-color="#F5F1F2"/>
<stop offset="0.77" stop-color="#FCFBFB"/>
<stop offset="1" stop-color="white"/>
</linearGradient>
<linearGradient id="paint34_linear_7701_15595" x1="70.7699" y1="106.197" x2="70.4734" y2="116.523" gradientUnits="userSpaceOnUse">
<stop stop-color="#7B7C7F"/>
<stop offset="0.03" stop-color="#828386"/>
<stop offset="0.17" stop-color="#A8A9AB"/>
<stop offset="0.31" stop-color="#C7C8C9"/>
<stop offset="0.46" stop-color="#E0E0E1"/>
<stop offset="0.62" stop-color="#F1F1F1"/>
<stop offset="0.79" stop-color="#FBFBFB"/>
<stop offset="1" stop-color="white"/>
</linearGradient>
<linearGradient id="paint35_linear_7701_15595" x1="107.332" y1="106.371" x2="107.044" y2="116.284" gradientUnits="userSpaceOnUse">
<stop stop-color="#999B9E"/>
<stop offset="0.07" stop-color="#A8AAAD"/>
<stop offset="0.23" stop-color="#C7C9CA"/>
<stop offset="0.4" stop-color="#E0E0E1"/>
<stop offset="0.58" stop-color="#F1F1F2"/>
<stop offset="0.77" stop-color="#FBFBFB"/>
<stop offset="1" stop-color="white"/>
</linearGradient>
<linearGradient id="paint36_linear_7701_15595" x1="77.6563" y1="74.5942" x2="62.5787" y2="92.5662" gradientUnits="userSpaceOnUse">
<stop stop-color="#009EDB"/>
<stop offset="0.08" stop-color="#2DACDD"/>
<stop offset="0.25" stop-color="#A0D0E4"/>
<stop offset="0.36" stop-color="#E6E7E8"/>
<stop offset="1" stop-color="#1198D7"/>
</linearGradient>
<linearGradient id="paint37_linear_7701_15595" x1="46.0536" y1="96.5635" x2="26.2029" y2="72.903" gradientUnits="userSpaceOnUse">
<stop stop-color="#009EDB"/>
<stop offset="0.68" stop-color="#E6E7E8"/>
<stop offset="1" stop-color="#3EB2E6"/>
</linearGradient>
<linearGradient id="paint38_linear_7701_15595" x1="55.6719" y1="74.9692" x2="46.7397" y2="103.697" gradientUnits="userSpaceOnUse">
<stop stop-color="#009EDB"/>
<stop offset="0.08" stop-color="#2DACDD"/>
<stop offset="0.25" stop-color="#A0D0E4"/>
<stop offset="0.36" stop-color="#E6E7E8"/>
<stop offset="1" stop-color="#1198D7"/>
</linearGradient>
<clipPath id="clip0_7701_15595">
<rect width="135.987" height="114.711" fill="white" transform="translate(0.384766 0.592041)"/>
</clipPath>
</defs>
</svg>
